<mxfile host="Electron" agent="Mozilla/5.0 (Windows NT 10.0; Win64; x64) AppleWebKit/537.36 (KHTML, like Gecko) draw.io/24.7.8 Chrome/128.0.6613.36 Electron/32.0.1 Safari/537.36" version="24.7.8">
  <diagram name="Страница — 1" id="KYkjO1TxtvT5_NhWXlbf">
    <mxGraphModel dx="500" dy="778" grid="1" gridSize="10" guides="1" tooltips="1" connect="1" arrows="1" fold="1" page="1" pageScale="1" pageWidth="827" pageHeight="1169" math="0" shadow="0">
      <root>
        <mxCell id="0" />
        <mxCell id="1" parent="0" />
        <mxCell id="hn92On2GZQvgxOl0pTMG-43" style="edgeStyle=orthogonalEdgeStyle;rounded=0;orthogonalLoop=1;jettySize=auto;html=1;exitX=0.5;exitY=1;exitDx=0;exitDy=0;exitPerimeter=0;entryX=0.5;entryY=0;entryDx=0;entryDy=0;endArrow=none;endFill=0;" edge="1" parent="1" source="hn92On2GZQvgxOl0pTMG-2" target="hn92On2GZQvgxOl0pTMG-4">
          <mxGeometry relative="1" as="geometry" />
        </mxCell>
        <mxCell id="hn92On2GZQvgxOl0pTMG-2" value="ПУСК" style="strokeWidth=2;html=1;shape=mxgraph.flowchart.terminator;whiteSpace=wrap;" vertex="1" parent="1">
          <mxGeometry x="80" y="30" width="120" height="50" as="geometry" />
        </mxCell>
        <mxCell id="hn92On2GZQvgxOl0pTMG-44" style="edgeStyle=orthogonalEdgeStyle;rounded=0;orthogonalLoop=1;jettySize=auto;html=1;exitX=0.5;exitY=1;exitDx=0;exitDy=0;entryX=0.5;entryY=0;entryDx=0;entryDy=0;endArrow=none;endFill=0;" edge="1" parent="1" source="hn92On2GZQvgxOl0pTMG-4" target="hn92On2GZQvgxOl0pTMG-6">
          <mxGeometry relative="1" as="geometry" />
        </mxCell>
        <mxCell id="hn92On2GZQvgxOl0pTMG-4" value="x_start := 0.0&lt;div&gt;x_end := 10.0&lt;/div&gt;&lt;div&gt;step := 0.1&lt;/div&gt;&lt;div&gt;m_count := 5&lt;/div&gt;" style="shape=parallelogram;perimeter=parallelogramPerimeter;whiteSpace=wrap;html=1;fixedSize=1;strokeWidth=2;" vertex="1" parent="1">
          <mxGeometry x="80" y="100" width="120" height="60" as="geometry" />
        </mxCell>
        <mxCell id="hn92On2GZQvgxOl0pTMG-45" style="edgeStyle=orthogonalEdgeStyle;rounded=0;orthogonalLoop=1;jettySize=auto;html=1;exitX=0.5;exitY=1;exitDx=0;exitDy=0;entryX=0.5;entryY=0;entryDx=0;entryDy=0;endArrow=none;endFill=0;" edge="1" parent="1" source="hn92On2GZQvgxOl0pTMG-6" target="hn92On2GZQvgxOl0pTMG-9">
          <mxGeometry relative="1" as="geometry" />
        </mxCell>
        <mxCell id="hn92On2GZQvgxOl0pTMG-6" value="m_values :=" style="shape=parallelogram;perimeter=parallelogramPerimeter;whiteSpace=wrap;html=1;fixedSize=1;strokeWidth=2;" vertex="1" parent="1">
          <mxGeometry x="80" y="180" width="120" height="60" as="geometry" />
        </mxCell>
        <mxCell id="hn92On2GZQvgxOl0pTMG-7" value="&lt;div style=&quot;color: rgb(204, 204, 204); background-color: rgb(31, 31, 31); font-family: &amp;quot;JetBrains Mono&amp;quot;, Consolas, &amp;quot;Courier New&amp;quot;, monospace; line-height: 19px; white-space-collapse: preserve;&quot;&gt;{&lt;span style=&quot;color: #b5cea8;&quot;&gt;1&lt;/span&gt;, &lt;span style=&quot;color: #b5cea8;&quot;&gt;2&lt;/span&gt;, &lt;span style=&quot;color: #b5cea8;&quot;&gt;3&lt;/span&gt;, &lt;span style=&quot;color: #b5cea8;&quot;&gt;4&lt;/span&gt;, &lt;span style=&quot;color: #b5cea8;&quot;&gt;5&lt;/span&gt;}&lt;/div&gt;" style="strokeWidth=2;html=1;shape=mxgraph.flowchart.annotation_1;align=left;pointerEvents=1;" vertex="1" parent="1">
          <mxGeometry x="220" y="170" width="30" height="80" as="geometry" />
        </mxCell>
        <mxCell id="hn92On2GZQvgxOl0pTMG-8" style="edgeStyle=orthogonalEdgeStyle;rounded=0;orthogonalLoop=1;jettySize=auto;html=1;exitX=1;exitY=0.5;exitDx=0;exitDy=0;entryX=0;entryY=0.5;entryDx=0;entryDy=0;entryPerimeter=0;endArrow=none;endFill=0;dashed=1;" edge="1" parent="1" source="hn92On2GZQvgxOl0pTMG-6" target="hn92On2GZQvgxOl0pTMG-7">
          <mxGeometry relative="1" as="geometry" />
        </mxCell>
        <mxCell id="hn92On2GZQvgxOl0pTMG-46" style="edgeStyle=orthogonalEdgeStyle;rounded=0;orthogonalLoop=1;jettySize=auto;html=1;exitX=0.5;exitY=1;exitDx=0;exitDy=0;entryX=0.5;entryY=0;entryDx=0;entryDy=0;endArrow=none;endFill=0;" edge="1" parent="1" source="hn92On2GZQvgxOl0pTMG-9" target="hn92On2GZQvgxOl0pTMG-14">
          <mxGeometry relative="1" as="geometry" />
        </mxCell>
        <mxCell id="hn92On2GZQvgxOl0pTMG-9" value="&lt;font style=&quot;font-size: 11px;&quot;&gt;x_steps:=&lt;/font&gt;&lt;div style=&quot;font-size: 11px;&quot;&gt;&lt;font style=&quot;font-size: 11px;&quot;&gt;(x_end-x_start)/step+1&lt;/font&gt;&lt;/div&gt;" style="rounded=0;whiteSpace=wrap;html=1;strokeWidth=2;" vertex="1" parent="1">
          <mxGeometry x="80" y="260" width="120" height="60" as="geometry" />
        </mxCell>
        <mxCell id="hn92On2GZQvgxOl0pTMG-47" style="edgeStyle=orthogonalEdgeStyle;rounded=0;orthogonalLoop=1;jettySize=auto;html=1;exitX=0.5;exitY=1;exitDx=0;exitDy=0;endArrow=none;endFill=0;" edge="1" parent="1" source="hn92On2GZQvgxOl0pTMG-14" target="hn92On2GZQvgxOl0pTMG-15">
          <mxGeometry relative="1" as="geometry" />
        </mxCell>
        <mxCell id="hn92On2GZQvgxOl0pTMG-14" value="заголовок&amp;nbsp;&lt;div&gt;таблицы&lt;/div&gt;" style="shape=parallelogram;perimeter=parallelogramPerimeter;whiteSpace=wrap;html=1;fixedSize=1;strokeWidth=2;" vertex="1" parent="1">
          <mxGeometry x="80" y="340" width="120" height="60" as="geometry" />
        </mxCell>
        <mxCell id="hn92On2GZQvgxOl0pTMG-49" style="edgeStyle=orthogonalEdgeStyle;rounded=0;orthogonalLoop=1;jettySize=auto;html=1;exitX=0.5;exitY=1;exitDx=0;exitDy=0;entryX=0.5;entryY=0;entryDx=0;entryDy=0;endArrow=none;endFill=0;" edge="1" parent="1" source="hn92On2GZQvgxOl0pTMG-15" target="hn92On2GZQvgxOl0pTMG-19">
          <mxGeometry relative="1" as="geometry" />
        </mxCell>
        <mxCell id="hn92On2GZQvgxOl0pTMG-15" value="step_index := 0" style="shape=hexagon;perimeter=hexagonPerimeter2;whiteSpace=wrap;html=1;fixedSize=1;strokeWidth=2;" vertex="1" parent="1">
          <mxGeometry x="80" y="420" width="120" height="70" as="geometry" />
        </mxCell>
        <mxCell id="hn92On2GZQvgxOl0pTMG-52" style="edgeStyle=orthogonalEdgeStyle;rounded=0;orthogonalLoop=1;jettySize=auto;html=1;exitX=0.5;exitY=1;exitDx=0;exitDy=0;entryX=0.5;entryY=0;entryDx=0;entryDy=0;endArrow=none;endFill=0;" edge="1" parent="1" source="hn92On2GZQvgxOl0pTMG-16" target="hn92On2GZQvgxOl0pTMG-21">
          <mxGeometry relative="1" as="geometry" />
        </mxCell>
        <mxCell id="hn92On2GZQvgxOl0pTMG-16" value="i := 0" style="shape=hexagon;perimeter=hexagonPerimeter2;whiteSpace=wrap;html=1;fixedSize=1;strokeWidth=2;" vertex="1" parent="1">
          <mxGeometry x="80" y="670" width="120" height="70" as="geometry" />
        </mxCell>
        <mxCell id="hn92On2GZQvgxOl0pTMG-50" style="edgeStyle=orthogonalEdgeStyle;rounded=0;orthogonalLoop=1;jettySize=auto;html=1;exitX=0.5;exitY=1;exitDx=0;exitDy=0;entryX=0.5;entryY=0;entryDx=0;entryDy=0;endArrow=none;endFill=0;" edge="1" parent="1" source="hn92On2GZQvgxOl0pTMG-19" target="hn92On2GZQvgxOl0pTMG-20">
          <mxGeometry relative="1" as="geometry" />
        </mxCell>
        <mxCell id="hn92On2GZQvgxOl0pTMG-19" value="x := x_start +&lt;div&gt;step_index * step&lt;/div&gt;" style="shape=parallelogram;perimeter=parallelogramPerimeter;whiteSpace=wrap;html=1;fixedSize=1;strokeWidth=2;" vertex="1" parent="1">
          <mxGeometry x="80" y="510" width="120" height="60" as="geometry" />
        </mxCell>
        <mxCell id="hn92On2GZQvgxOl0pTMG-51" style="edgeStyle=orthogonalEdgeStyle;rounded=0;orthogonalLoop=1;jettySize=auto;html=1;exitX=0.5;exitY=1;exitDx=0;exitDy=0;entryX=0.5;entryY=0;entryDx=0;entryDy=0;endArrow=none;endFill=0;" edge="1" parent="1" source="hn92On2GZQvgxOl0pTMG-20" target="hn92On2GZQvgxOl0pTMG-16">
          <mxGeometry relative="1" as="geometry" />
        </mxCell>
        <mxCell id="hn92On2GZQvgxOl0pTMG-20" value="x" style="shape=parallelogram;perimeter=parallelogramPerimeter;whiteSpace=wrap;html=1;fixedSize=1;strokeWidth=2;" vertex="1" parent="1">
          <mxGeometry x="80" y="590" width="120" height="60" as="geometry" />
        </mxCell>
        <mxCell id="hn92On2GZQvgxOl0pTMG-53" style="edgeStyle=orthogonalEdgeStyle;rounded=0;orthogonalLoop=1;jettySize=auto;html=1;exitX=0.5;exitY=1;exitDx=0;exitDy=0;entryX=0.5;entryY=0;entryDx=0;entryDy=0;endArrow=none;endFill=0;" edge="1" parent="1" source="hn92On2GZQvgxOl0pTMG-21" target="hn92On2GZQvgxOl0pTMG-22">
          <mxGeometry relative="1" as="geometry" />
        </mxCell>
        <mxCell id="hn92On2GZQvgxOl0pTMG-21" value="&lt;font style=&quot;font-size: 11px;&quot;&gt;y := calc_y(&lt;span style=&quot;background-color: initial;&quot;&gt;m_values[i],x)&lt;/span&gt;&lt;/font&gt;" style="shape=parallelogram;perimeter=parallelogramPerimeter;whiteSpace=wrap;html=1;fixedSize=1;strokeWidth=2;" vertex="1" parent="1">
          <mxGeometry x="80" y="760" width="120" height="60" as="geometry" />
        </mxCell>
        <mxCell id="hn92On2GZQvgxOl0pTMG-55" style="edgeStyle=orthogonalEdgeStyle;rounded=0;orthogonalLoop=1;jettySize=auto;html=1;exitX=0.5;exitY=1;exitDx=0;exitDy=0;entryX=0.5;entryY=0;entryDx=0;entryDy=0;endArrow=none;endFill=0;" edge="1" parent="1" source="hn92On2GZQvgxOl0pTMG-22" target="hn92On2GZQvgxOl0pTMG-23">
          <mxGeometry relative="1" as="geometry" />
        </mxCell>
        <mxCell id="hn92On2GZQvgxOl0pTMG-22" value="y" style="shape=parallelogram;perimeter=parallelogramPerimeter;whiteSpace=wrap;html=1;fixedSize=1;strokeWidth=2;" vertex="1" parent="1">
          <mxGeometry x="80" y="840" width="120" height="60" as="geometry" />
        </mxCell>
        <mxCell id="hn92On2GZQvgxOl0pTMG-56" style="edgeStyle=orthogonalEdgeStyle;rounded=0;orthogonalLoop=1;jettySize=auto;html=1;exitX=0.5;exitY=1;exitDx=0;exitDy=0;entryX=0.5;entryY=0;entryDx=0;entryDy=0;endArrow=none;endFill=0;" edge="1" parent="1" source="hn92On2GZQvgxOl0pTMG-23" target="hn92On2GZQvgxOl0pTMG-24">
          <mxGeometry relative="1" as="geometry" />
        </mxCell>
        <mxCell id="hn92On2GZQvgxOl0pTMG-23" value="i := i + 1" style="shape=hexagon;perimeter=hexagonPerimeter2;whiteSpace=wrap;html=1;fixedSize=1;strokeWidth=2;" vertex="1" parent="1">
          <mxGeometry x="80" y="920" width="120" height="70" as="geometry" />
        </mxCell>
        <mxCell id="hn92On2GZQvgxOl0pTMG-75" style="edgeStyle=orthogonalEdgeStyle;rounded=0;orthogonalLoop=1;jettySize=auto;html=1;exitX=0;exitY=0.5;exitDx=0;exitDy=0;entryX=0;entryY=0.5;entryDx=0;entryDy=0;" edge="1" parent="1" source="hn92On2GZQvgxOl0pTMG-24" target="hn92On2GZQvgxOl0pTMG-21">
          <mxGeometry relative="1" as="geometry">
            <Array as="points">
              <mxPoint x="60" y="1050" />
              <mxPoint x="60" y="790" />
            </Array>
          </mxGeometry>
        </mxCell>
        <mxCell id="hn92On2GZQvgxOl0pTMG-24" value="i &amp;lt;= m_count - 1" style="rhombus;whiteSpace=wrap;html=1;strokeWidth=2;" vertex="1" parent="1">
          <mxGeometry x="80" y="1010" width="120" height="80" as="geometry" />
        </mxCell>
        <mxCell id="hn92On2GZQvgxOl0pTMG-29" value="calc_y" style="text;html=1;align=center;verticalAlign=middle;resizable=0;points=[];autosize=1;strokeColor=none;fillColor=none;" vertex="1" parent="1">
          <mxGeometry x="535" y="10" width="60" height="30" as="geometry" />
        </mxCell>
        <mxCell id="hn92On2GZQvgxOl0pTMG-40" style="edgeStyle=orthogonalEdgeStyle;rounded=0;orthogonalLoop=1;jettySize=auto;html=1;exitX=0.5;exitY=0;exitDx=0;exitDy=0;endArrow=none;endFill=0;dashed=1;" edge="1" parent="1" source="hn92On2GZQvgxOl0pTMG-30" target="hn92On2GZQvgxOl0pTMG-29">
          <mxGeometry relative="1" as="geometry" />
        </mxCell>
        <mxCell id="hn92On2GZQvgxOl0pTMG-41" style="edgeStyle=orthogonalEdgeStyle;rounded=0;orthogonalLoop=1;jettySize=auto;html=1;exitX=0.5;exitY=1;exitDx=0;exitDy=0;endArrow=none;endFill=0;dashed=1;" edge="1" parent="1" source="hn92On2GZQvgxOl0pTMG-30" target="hn92On2GZQvgxOl0pTMG-36">
          <mxGeometry relative="1" as="geometry" />
        </mxCell>
        <mxCell id="hn92On2GZQvgxOl0pTMG-30" value="y:=" style="rounded=0;whiteSpace=wrap;html=1;strokeWidth=2;" vertex="1" parent="1">
          <mxGeometry x="505" y="60" width="120" height="60" as="geometry" />
        </mxCell>
        <mxCell id="hn92On2GZQvgxOl0pTMG-31" value="" style="strokeWidth=2;html=1;shape=mxgraph.flowchart.annotation_1;align=left;pointerEvents=1;" vertex="1" parent="1">
          <mxGeometry x="655" y="48" width="30" height="80" as="geometry" />
        </mxCell>
        <mxCell id="hn92On2GZQvgxOl0pTMG-34" style="edgeStyle=orthogonalEdgeStyle;rounded=0;orthogonalLoop=1;jettySize=auto;html=1;exitX=1;exitY=0.5;exitDx=0;exitDy=0;entryX=0;entryY=0.5;entryDx=0;entryDy=0;entryPerimeter=0;endArrow=none;endFill=0;dashed=1;" edge="1" parent="1" source="hn92On2GZQvgxOl0pTMG-30" target="hn92On2GZQvgxOl0pTMG-31">
          <mxGeometry relative="1" as="geometry" />
        </mxCell>
        <mxCell id="hn92On2GZQvgxOl0pTMG-35" value="" style="shape=image;verticalLabelPosition=bottom;labelBackgroundColor=default;verticalAlign=top;aspect=fixed;imageAspect=0;image=data:image/png,iVBORw0KGgoAAAANSUhEUgAAAUAAAABLCAYAAAABIF7dAAAAAXNSR0IArs4c6QAAAARnQU1BAACxjwv8YQUAAAAJcEhZcwAADsMAAA7DAcdvqGQAAB3PSURBVHhe7d1ljCXF1wbwxt0Wd3d3d3d3DRYg8BFI+MIf5wOS4IRAYBdd3N3d3d3dXd93f8WepWn6jt7ZnZmuJ+ncmdaqI885dar63rH+bwSKjIyMjAZi7JGfGRkZGY1DJsCMjIzGIhNgRkZGY5EJMCMjo7HIBJiRkdFYZALMyMhoLDIBZmRkNBaZADMyMhqLTIAZGRmNRX4TZASI4K+//kqfIY6xxhrrX58ZGRkDF2OPPXatL2cCHIGffvqpePvtt4v33nuv+Pnnn5OgJppoomLyySdPgsvIyBi44M/zzjtvMWTIkJF7/kEmwBH45JNPihtvvLF44IEHiu+++y7tI7QpppgiE2BGxgDHOOOMU+y3337FEkssMXLPP2g8Aer+m2++WZx66qnFPffckzK/CSecsPjmm29GnpGRkTGQgQBPOOGEYs011xy55x9kAhzR/VdeeaU46aST0lB4u+22K1ZZZZVRtcCMjIyBj8kmm6yYYIIJRv73DzIBjuj+888/Xxx77LHFlFNOWey8887FyiuvnCc/MjIGGep8uvEFrj///LP47bffih9//DFNekwyySRJUHnLW94G11aHxhOg5S9mfn/55Zc06THxxBOPPJKRkTHY0XgC/P333xMB/vrrr2kInAkwI6M5yAQ4ggANf2WChsBmgFulyxkZGYMLjSdAmd8PP/yQJkNazRRlZGQMTmQCHEmA4447bpoAGX/88UceycjIGOxoNAHK+tT/vP2B+CyCRoQZGRnNQOMzQLO/MkBDX5tV4xkZGc1A4wlQBogAzf7K/vIESEZGc5AzwBEZoFfgggAzMjKagzwJ8uuviQBNgGQCzMhoFnIGOCIDNAyedNJJMwFmZDQMjSdA7wHLAq0BHG+88UbuzegpzKyT59dff118+umnxWeffVZ88cUX6TsXfcq2MzL6Cxr9bTC6fvHFFxcXXHBBsckmmxRbbbVVMfPMM+eJkF4A+T333HPFzTffXLz22mtpaZHs+oMPPihmmGGGYv311y823HDDPNue0S8wzv9GYOTfjcMff/xRPPnkk8UzzzxTLL/88sX888+fnLUzIE4zx7IZWWNH3zbRNCgpPPTQQ8UTTzxRTDXVVInsfB35999/X7zwwgtpzeUCCywwKH5ugB2woc8//zx9p6Ttww8/TPssqYoRhfO8bqnUEisNOrMX13hN0/1effXVdO/3338/BQ5rVvNo5W8Zsat33nmneOmll4o33nij+Oqrr9LrrGTUFfvqkAA9wPbtt98mJRvO2HxbMuVQxkBdOqJfspXHH3+8ePHFF4s11lijmGuuuVLGUgfnM2xDOaRpI4cZZ5xxFAkGynLj8IbZTXnH2NeLkQuCE1TWWWedYo455kiyQ4qGxksttVTKtAcyAeqnIb2fUXjkkUcSUfERZCXzRXYyXrbBFvzmzFNPPZVsjT2wM8fqZMC3vvzyy+LWW29Nwfmjjz4adW9BhB0NhPfW45uWbP5uJ1dIPnyP51133ZXkQhd0QMY4imymnnrq9LyOntmSADVaDefll19OQxqfr7/+elIuJRjShCLjG1T6szKqYJSyuMceeywJ0NBs1llnrX0X2LnkIQLfeeedxX333Zd+QIkRyhpdE33nGM4lH/dm+I5xhoEkn55CUJxpppmKhRZaKBGfSMz4yYsz+1+wIY+BTIBIim4vvfTSZD+zzz57Mf3006cAedtttyVnXHDBBVMWTO9sR9B8+OGHE6Hpu5UHfKcqB1n0u+++W5x22mnJRmeZZZZ0b8HjoosuSs8WQATf/irDCIR0LjMTAKeddtq2tVemd8MNNyRZsymjDJ8PPvhgGoHwTfK3ryO/qyVABsuBb7rppvRbGW7ogTohq3n00UdTjUfqSYlzzz13MvyB5OD6yKBkgPqx8cYbj8rmykB+DM7vhhD49ddfX8w333zFpptumr46vzyUcx6lc4jhw4cXQ4cOTYbMgA372qH8+AJXG3n3RwcQ6RmeT/KTBd9yyy2JBBdZZJFio402So4/kAMCPfAF+kb2m222WRpBTDPNNMnpEZ6AyjFlI4hQQHD83nvvTUkFW2MbkoiyLPgZmSFRJQQBw32QrB/vEmDdi4P3VP/sP+yIjtynnfow5Odbp59+enHHHXcke5D5s4l2gAzeeuutYs4550zyWXHFFVPg5YMyctnf4osvniY3O+rXf6RHGITj5thV1rfWWmsVe++9d7HXXnsVe+65Z3HIIYekB9x///2JEERC1wwk6Kf6gVSactT+6grzzhOxb7/99uKaa65JsmDsfmGKUcc1BC/SidCHHnpoceGFF6YUHclylnbB0EgAkonKNvqb3BlbeSNjjiCIChwmmwSNjoxyIAB5IaRtttkmBU/ZjX75Tkn2xC5iZGBD+LI2jrrPPvske0Fmfoirah+uc2/nOb98bwRiq7PV7oDdI2F2rb6oPWy9HWCTRo9XXnllGgV9/PHHyQ7adX/w5cUC6ZZbblkstthiST7ILvwYoXeFbGvDB4W5mQiz+eabpyi07LLLJgOWySyzzDIpIuko8rO108lHByhDlBVJGKcoXDUq54hk6jzxi3F+WYocCJqcnKOWKFjIEN1z7bXXLpZccsmkJOe0M0tDeiIq45Jl9NfAQy7InwMYJioVbLDBBsmm2pUFjEnQKRuQwU033XTpf3agPMTZZSayXWQY0G82wTZWW221NLxFQAKnTCzADt1bRhk/zSrTFEhcwwf5X2/sShsFpSuuuCLVzcrP7y0kDJIjSZRstrdkXQdyjTKAUWhk5LI/WbZRaWfZH/xHguGws802Wxrm7bbbbkngMWSxUaTsByEQXJXd/a3j9keKHeCwlIhYnFM+JgrFsb4mVO3goAiQsYm6VYPSPqUAdQWFVak2wyaLMvRBuyll6aWXTlkyA5clu2dnSugOEKw6rOjNKcry6y5CT7KBcgbgk/zpweZYGf63X5/r9OR6xqjmxcH9L4gKnCJ1f4R+xGuR/g5ZAFthJ+zZOXUgDzORSIXeY1KtWlJhD+zHcUM21wiwnltF2A1ZGk1ce+21KZAovRgC98au+KXSj+G6oXY7AimZkY/5AsN8mautKoMqXMemyNhWlj3QB1uzVW3RudouMSB7pGvyzQgtOKsjtMwARTVjdjeqMmk02Kf6RmQ6QABSXlFF1kRxZmh0TGQgcMIRIdTKGI7ISQkcJo6puelwX4HQEIhnc0pKqgqLkTz77LNJqIr2MpiqLPyNPNdbb71i1113TRmic+oyynaB3GPrKfSN0dAHedOXmUb6M3xBsPRnwodB0wVZ0S2Z0JPjjiHlaItPzkzvMUxXPpENMWT/G8a3w+F6C23VJnZgGCjQmaRQqyQHx9mtOq6yAwdzrCp3NiwoGQUIqma+2YqAWLUpkEBIMOaZZ57kR2YytUFbyvAccpdV3n333clHJCQrrLDCqBFIT+He5a0dEEyR6tNPP53kgIhM3rS6v/2ukVywKbZmpQD7IBc2wrbwhGMyYOcGXO8c++hNndlwWJnFSKMr8mk5CyxSURQnLt/IA0XCyy+/PBkGw7aAWNTTIAIwfX/uuecWV111VSIPBONeDMSiY5GMQmVXah0cxvDxkksuKa677rpkECZdRMi+mj0lYMI2fEf2omo5s9MXxqc9DFAW7DeDqwXrgEDgGCKlVNdQmPRc5tObgnUZHJAzko+hdkxAdQccjewR1Pnnn59qm9o6ZMiQ1F7kppZpP106V0EfGRh+G9LSrb+j2B8LyPU9ZkcdW3XVVVMbEa4AR+aMWibdVwGiq6BjfSJP7R02bFgKBvqAoMhCX0xoqekKEmS06KKLpr6GA8viyImtr7vuuqnPhmHgvDp7YQt06Vqf7E+2FENm9yYzgYhj08Huu++eSKUdpRWEa7iozXzYfcurGboLNiVT5dt0bCTkvgIsW1144YXTz82Ws8FIQvAC2V922WWjZGxoSwZsZujQoemFBQGAXmS/4DguInsESeZ+1lbmzR+hs/50S4IeKNphawrREIqLNV1YX1bgOIFSpsgqctowOac1O4P0sLZJlLPOOitlHyIbIYkA7oNg+ypTCOFRXNRZyvBcfdUGZIngEWSd0YUx2npqQKML+kX25GtNmixEcV3GzVjV7DidSEqHIDNCEAyRs9KfIT7jRR6ILrIXmVNkUowSwR588MHFQQcdVBx33HHJ2Mmd/Mc06JVTGaZzTHXuWNtntGLTF7ISwAVkthLQZwQSmbDMb6WVVkqOKHjKlkMuZbARm+AuQ/JMdcCyXCKQCMCIRQnBhAhd8TOk0h9kCNpB7+wGYfF7gYAcOvIHMiI3dscO1dbxBX3I6vwtSMsoyQn5GV0BO47aOyKnFwmK+2gP2+S/ncmoWwSokxyFI4hOq6++eqplBDEwEpHdfkTHYERY2RBj4jRmzBiKzI/xyTZcy/jUHF0nI5Ml1NVF2gWCcX+fhFfNRhggQ2Ocjsli68hvoIFBxhCMsxqyi5gcFZkZytGFIZy1kYJcEAGDUhIJPTnGDhhiGBoiYcg77bRTse+++ybHFSRlRYYmNhmUNoxpkAXb1Sd9NcMvmLNLxMY2OZ/277HHHsWOO+6YshrggAhLFizgIzP2zqllMbI2xNjKhj0bQXBsfmXk5FqIe8um7JcRaRdbRDCSBu2qI9cxAYFEQoSMgP/L+iObbQV+hdAFWjO6yy23XLoGkQrO5McHjTDZktUXeAPYnBUqluORG5uT9QnQlu/J5JVbOiPALlmhmyAE2RDFGqKqeTEaDw6Wx86MhQJldBSkocDhnC/NpnTnEhwHYniyv4huhh6Moq4u1y7oE3KGOnLTdlGEcClFm0YHol1kzeCrCmQcZKtdAgulM6SynMxMknd1P/jfNbIJ92a4oV8ExynpVp/JgJ7o0GZYI0M3VOOgjmljOfN1b2TnvDo4L7aOwC7YAiJiJ90F20HQyIPN1QEJs0Wk7G8jFMGA7BG+fQgSmZNn2KONfUaGwunU5JR1yAKBartkQACog3u4hs2Hv7gn0IO2IDr3c57n0JNg5P50JHh1BDJUz9W+KlkiB/fxLCSrv/pa1ovEgDzYfqvgr00yVCUUmVwE1brRkn6ybfvJVskIUdITW9UegYTOydL5hs677LLLv3zUfvLFRYI23egDW3bMaNMIhh9U/aeKTgnQDQiPwES7q6++Oi381KjqwkYN5ACcSeSLgqWMQsYQhmiIK8PjSLJCGQFD8BwCCkck+KqjuC+Bc0jG63nVc7oC/XIP13Lk6j20hUHqiz52Fs3aBe0yvGH8hmIUWoZjlE1GljCIkmVD048tttii2H777VuStnMYn74hshjCCkQydA6HdOiIPsz407VaZtR6PZ8eyYVeq21g0L2B+8sC1JK1ozNDroLzmjBge60IUJuRWtiwfnJ4QzBBniysM5N96WfZRtiO0VD0m/NHn8lSDQsBun8rhF25L1tzHQhu7s222To5IFtwDsfmO+X21IHuYhmSv8vgR4ieDtkZG9Ce8j1lu1Y06EdZv2Vot+E7bmA3EiKyd38bG2PD5IUPEL22kw+9sEO6dY4M2iy3jFoJZYcddkhDaeRXtifnujeZeBYyRJgBtsunHetMRvW9KkHjKEGhUScx9GGHHZbWMlUJyt82wsbmhIuddapcD0CmsiuKRIyiNAFzRnUTxu8YgyxDW6IofeaZZ6ZnhNF0F+4lQhJsq+GtewcBdSbIdkJbGD8lVjeRlVM5h/HYx/DK51QJqQ76o/8MkmEyFoZOvxyB4dIT8kEKiICBOka/rpP90Sv5VeVDbs5zvXt1l8Dcz7PYWLV/Xdlc0xH5BDyHrGyeZUKHjAVkgR4J1AVZ92e7RxxxRHH22WcXp5xySnHyySenzd/2W0PbKghBPBvKtsYf3PvEE09M9fHqvQ8//PAUrDoLMu6PYOvkZ59jnu+zetzGvjp7hqzLcJNfxqjDxI6RinIK/SNJ58li+a1JEgSmfWX5K33JCNmvWh6OieywDOeyRbVlb5qcccYZo+Rj8wqh4IdDqnqrotMMEHOLhjYC2XbbbdNQqJouBxg6coulEzpUHj5QMocjFMdi7A6cyrjeMzkdQ6jCPRgVYWlPZx2sgzYwOJGCcBlDGGIZHND+OH90QH84n3IBOVeJg2HJ/BiUWpysTDsDrmccjLoz0I+Ag6jIOzIdQFqeIfgxQnUyctIeEdcxOrQgtxzcgLwEP5Mg2mtmjg2EnrsC9mXm3dtHPR0Cqxdpc3ehLzaOyNZa2YYsxtZTsClyhrA18Nze3hv4BxKhn6r9Cm4SCTpUg+PXVX8SFPlZKxJkC66nH20VUC1/4vuexwYESQmNYbhj9kcAryJsXRvIgw3U2YzjjllZ0Vv8txUlaLg6k7G2hhvbx6SHRuiwc2RuEb0AAYoCBMMICRF0ELkRius5qkgTAkaMCND/HFIGGApxf85IcDJKNSZE0Uo5HSEUFxlgnZHbz3koQD+qQ4i+QihXYFBP0c/yplwQ5QEZSvUc/yMsBhSyawV6MvQBxoQAXUPW+stoRWp6CFmTHcN2HUPWhupwzDnsAknKDKrO1xUgYnajMF7uX1c318lmuxIIgF1qr8kF0H4BIpyyL8AGPQfYWjmQtQP0Q6exuqK8CZz8j63xUSRYPUf2yz/ryAronO6dawZWOcs1ApeNHeoXHShX0cnWW2+d6nrINkDG7EzGGKUEpR7yL/NKX6AlAXqwAqr1eWoFIom0W1TQYJFLQVaEV7AtGznHQmQ6bkihbkRYERVsEeUiM3RPxMgICU36SjlIyrN8qosgZJkiAugJ+YG+MTwG6PlB6GUwRo7PADy7O87gvFBc+e/uQHtabWXUHbd1Bu2iJyRHBgiXkbqWngQbJQayJ4cgVNeRv2PkJos3BCYjgUJfXeNcQUzAdF/P6AmiPz3Zugr9JQeFfPVVTm2fTFcg0B+f+tdVG+gM7kPGfAHBxIim3aiTiy0Qf1ePx9YZ6BbxqTsjt9j8b7WHIMQ+BFj7jFoMb/k/kAPZSpjMcOMAsiAXJBj+z199tkv+gVoC9BBZnUZZh8QBdEQjkJ3io8Ksl7ktUFQDYBwQ5CKbk6noDLICnXF9EJjoVI4urmMUBOa48xim/SK0CGEh9TnnnJOIEIH1BIw7alMUUTeU5vDInjPok3a5rhXIzOZc52kzmUSUt98W541paAMDQ2SyXNkAuQM9CX6MkB4YeejJdYiBfhGgayKTdD8ydYzu2I1MQ0BrlUWMKdCRoBZZquUUlq/IZsyQswuyYX/6JaDrNx22A+TI2ck5Aolg2xXS6U/QXrqtbvaHvYftx7k+2VjYDS5R1iFfQ3FZpIyQ7A3VyYi/01e78R+r1GDGYRzvTQBT0qbIFRcPOOCA9A0V1uTsv//+ha/KwtplYtAx5KKxUmBOENEf0zMyDmJIJQMsp/3ugzQ4kdqU5yNZgiI4hOle2ohYe5pVuD9h+0R+CKBqeP53jGE6zqG1o9zXQCgZ0TFqSqNU50eWrM8IhWLdwzVjCp5NzhybcSEoRBbDRaQtE0L65EyP5B8QjPSD/PTVFzNYs+Zv11qawDbYDNupk9mYBhvVzuOPPz5NWGgnoreGzRIKpCQBUP6xrMIaN2TZLr2xF7JnV5ILWRECHAwgoyh14QG2EpzAZvSdf5PtMccck+yEbJW2lHAQIP/jNyZOrMc0B8Gf2o3asMw5RDxFbE7NsBUwTU3Hxnic43gQiI4jFufrKPKQRYXzcA7EQBAmOMqZBTA6zmjILdMjQDOTERkJ1fmG1IbIvSFA99ZeGY771BEgQuAMskBtMkSqyzqj38iaMx199NEpK7YP8XEeM3feOjST7tljGgySnmT61bdc9FH0FbAEHQQY5QZyEbxcg9yHDRuWjFmpA1kKaHQbgSBsoyrfMQn6Qu6yCo7FlmXAFn8bthuu6Q+nHD58eCoDsQF9LttrTxHBUoZJxiaY+EJX65X9HQhPAiWrU7YSaAURrxPyBwExFtfzDb5lpKBcQu5qhWQtufJ6nE8yihFKO9HyC1FjyOfBZiPrNo1WYNVgs3yMn0I5EOIzaWKWMIbAiAcpONdQQ0G/PPx0nKMhPE4kGhuO+Bv5Wa8kKhOS9UHIsieOhYC9PiPLEXk9g2FX7+V/RokMZML6pc/6Uz6XQwVpIAPXIA2vjCFQJG5IZb+ggLyr9+gqyE/mQG4WnbtXT5ySPOmKnuiQLsLABEAOqoQhIusHgoz26q++6BPdWPjsPJkMuNb6M/qxih+5tIM42gX94KRkqS8yDm8imAiIEYH9Po1g1EctPGZ35RFLT+C+5GspiPWGRkyGfSYGPG90ge4RMB9X3/d8Ou2JTVahf7I1diqAsi2BRYAUXNg+fiF/f7NjwYectcE+cqELNsX+LChnn+22o5a/CocEbZ2BwGzRMLeLLY6FUKvHqp0JxyMcDocIOZlzDR+ti5IWE9iBBx6YHKy78GyZibVDapkM21KLOsE6F1GIUr6oQaQ66qijEvlXlVHum60VXFOWSXchgmq3zE1wUkaoa3tnKLc12hNt6ugYCFT0xIAZKVlEpicQiOzWYjHeI488sm2ZUztBrzEsk9FyOs4H7D6GbQgCyetnb/tAnmQn+7F+TZCgQ1+gK8PsLbl2B/rNjgRswdrws24k1FOQYdhQIGwfws/5PPny9+g/mbNv8qcTQahd5FxFS41qrAZ1tsnYyoahkf6P/eVGV49V4X6cScZAKEF+hEgoIgpH41j2h5CrCMG3OhYRyr1kQK3gGQQvM7AujxNI4w2FOb8oFc8o960qo/JWlUl3QS6yUNmxiFonx66g3N5qmzo6BvYLTqK7LDHIDzi4zIJsEIutp23sS9ArWcqg2UC5nKK9HJJ8BZh2kB9blXUhP2UQpSCZpxlTMiTT0Qn983yjNJlXO8kPwn7qbN/m+Yb9bEgiU+6/v4MHyKavyA/6lWXqJCFRBiFEp8ukxRg5n+ghQnC4gPMQJUMTQUTxahbrHNe4NgiwI+FqjwxGfUKmKHNQ9I/lQe4VJDg6wJAYD6MpO+3oRCs9AXkoBZA72TpvdMqnq9BmbdeHcMwy7Cs7bm+g/2zX6EVdzIjCsE55QImk3eTTFegT+2dHkWiMToR8uyL/vmxb/wvNLRDExZAslvRqnmiKGIHDISfO57vqFOdN1hiSVR3QfQwBkGlXhtGUIFOwrsk7tuoZ3n9UR0Sy/dHBxwTIQeZHL2Rm6EIv9lUDUZMgKLOX+C5EduTVQu9XdzQCyeh7DAgCFAFEK7U3RITAOJUILlIgQcQnslo6Ywb5vPPOS9PsCLPsfJzU+YgRAar9dAUcWp1GMdY7noYPrh/dkbM/oxykfKpXChLWeglOTQZbZT8m3Lzkz5aVBzLGLDr8YfT+AiQjVZZ5eW3H8EHtQi0QMRnymir3LcZmiS1fsIm8zmV4McyIWqKFr4q/DNEQtytE5hyG7HyvgJnRMnxAwhl/EyBdWFaCBG0mr8hLvUcQayLYh1oim4l1pTlw9g8MCAIERmS4ypHCmewLQ1IXNJVvskKWaB2aNUiyP0QVxXgEaBZYtmjmK2Z0u2OQzi1vGX+DLCJAkLf3QS1Xki3TXZMDRbaX/okBY5EMRxZnAiDILxDDUwSI1GSHisuyEUMwWaHaiwwFAUZNSvbWlzNMTQSZkr3v0kN+1oEKTogxI6O/YVCEZGSIyNTzOKAMMBb3Gu56lUYdCvnZECMCRKi2jPaBLhT2lSosHKaTHGAy+isG3ZiEs8kQ43ctZB7eIPEqn6UzMQMMSDMTYEZGczEoizJIUAaCBGWDZogtiYlf4LdGEDHKFvPQLCOjuRiUBAiIzXu+22yzTVrxLwv0Bgfy8xaHuqFMMRNgRkZzMWgJUBboNRq1QBMjvpFCFuhbKbz/aA2frckzkxkZTceg9n4ZnrV+3pv1VoI6oDdIrBE0m2zLBJiR0VwMau+XBVrjZ1mMGWELc31TifWB1qU1fW1aRkbTMei930SH1fe+f9C3S8j+fJEr8uvqa3AZGRmDE4OeAGNZjC/tNCts6Yusz8LpTIAZGc1GI8Z/ZnzVAk2IePUN8XldyyRIRkZGc9EIApQFGvL69l3f6+c9VZMiMkPHMjIymonGzAAgOoujEaBveLZAGgFmZGQ0Fy1/E2Qwwvu/3gTxLrAlMPmLEDIymo1GESDorg3xZfLLyGg2GkeAGRkZGYHG1AAzMjIy/o2i+H88wcCjN3d9NAAAAABJRU5ErkJggg==;" vertex="1" parent="1">
          <mxGeometry x="665" y="71" width="162.13" height="38" as="geometry" />
        </mxCell>
        <mxCell id="hn92On2GZQvgxOl0pTMG-36" value="y" style="text;html=1;align=center;verticalAlign=middle;resizable=0;points=[];autosize=1;strokeColor=none;fillColor=none;" vertex="1" parent="1">
          <mxGeometry x="550" y="140" width="30" height="30" as="geometry" />
        </mxCell>
        <mxCell id="hn92On2GZQvgxOl0pTMG-42" value="1" style="text;html=1;align=center;verticalAlign=middle;resizable=0;points=[];autosize=1;strokeColor=none;fillColor=none;" vertex="1" parent="1">
          <mxGeometry x="480" y="28" width="30" height="30" as="geometry" />
        </mxCell>
        <mxCell id="hn92On2GZQvgxOl0pTMG-57" style="edgeStyle=orthogonalEdgeStyle;rounded=0;orthogonalLoop=1;jettySize=auto;html=1;exitX=0.5;exitY=1;exitDx=0;exitDy=0;entryX=0.5;entryY=0;entryDx=0;entryDy=0;entryPerimeter=0;" edge="1" parent="1" source="hn92On2GZQvgxOl0pTMG-24">
          <mxGeometry relative="1" as="geometry">
            <mxPoint x="140" y="1110" as="targetPoint" />
          </mxGeometry>
        </mxCell>
        <mxCell id="hn92On2GZQvgxOl0pTMG-74" style="edgeStyle=orthogonalEdgeStyle;rounded=0;orthogonalLoop=1;jettySize=auto;html=1;exitX=0;exitY=0.5;exitDx=0;exitDy=0;entryX=0;entryY=0.5;entryDx=0;entryDy=0;" edge="1" parent="1" source="hn92On2GZQvgxOl0pTMG-60" target="hn92On2GZQvgxOl0pTMG-19">
          <mxGeometry relative="1" as="geometry">
            <Array as="points">
              <mxPoint x="40" y="1140" />
              <mxPoint x="40" y="540" />
            </Array>
          </mxGeometry>
        </mxCell>
        <mxCell id="hn92On2GZQvgxOl0pTMG-60" value="13" style="ellipse;whiteSpace=wrap;html=1;aspect=fixed;strokeWidth=2;" vertex="1" parent="1">
          <mxGeometry x="110.5" y="1110" width="59" height="59" as="geometry" />
        </mxCell>
        <mxCell id="hn92On2GZQvgxOl0pTMG-72" style="edgeStyle=orthogonalEdgeStyle;rounded=0;orthogonalLoop=1;jettySize=auto;html=1;exitX=0.5;exitY=1;exitDx=0;exitDy=0;entryX=0.5;entryY=0;entryDx=0;entryDy=0;" edge="1" parent="1" source="hn92On2GZQvgxOl0pTMG-61" target="hn92On2GZQvgxOl0pTMG-68">
          <mxGeometry relative="1" as="geometry" />
        </mxCell>
        <mxCell id="hn92On2GZQvgxOl0pTMG-61" value="12" style="ellipse;whiteSpace=wrap;html=1;aspect=fixed;strokeWidth=2;" vertex="1" parent="1">
          <mxGeometry x="380" y="21" width="59" height="59" as="geometry" />
        </mxCell>
        <mxCell id="hn92On2GZQvgxOl0pTMG-64" style="edgeStyle=orthogonalEdgeStyle;rounded=0;orthogonalLoop=1;jettySize=auto;html=1;exitX=0.5;exitY=1;exitDx=0;exitDy=0;" edge="1" parent="1" source="hn92On2GZQvgxOl0pTMG-62">
          <mxGeometry relative="1" as="geometry">
            <mxPoint x="409.8421052631579" y="285" as="targetPoint" />
          </mxGeometry>
        </mxCell>
        <mxCell id="hn92On2GZQvgxOl0pTMG-73" style="edgeStyle=orthogonalEdgeStyle;rounded=0;orthogonalLoop=1;jettySize=auto;html=1;exitX=0;exitY=0.5;exitDx=0;exitDy=0;entryX=0;entryY=0.5;entryDx=0;entryDy=0;" edge="1" parent="1" source="hn92On2GZQvgxOl0pTMG-62" target="hn92On2GZQvgxOl0pTMG-61">
          <mxGeometry relative="1" as="geometry">
            <Array as="points">
              <mxPoint x="340" y="225" />
              <mxPoint x="340" y="51" />
            </Array>
          </mxGeometry>
        </mxCell>
        <mxCell id="hn92On2GZQvgxOl0pTMG-62" value="step_index&amp;lt;=&lt;div&gt;x_steps-1&lt;/div&gt;" style="rhombus;whiteSpace=wrap;html=1;strokeWidth=2;" vertex="1" parent="1">
          <mxGeometry x="349.5" y="185" width="120" height="80" as="geometry" />
        </mxCell>
        <mxCell id="hn92On2GZQvgxOl0pTMG-65" value="ОСТАНОВ" style="strokeWidth=2;html=1;shape=mxgraph.flowchart.terminator;whiteSpace=wrap;" vertex="1" parent="1">
          <mxGeometry x="349.5" y="285" width="120" height="50" as="geometry" />
        </mxCell>
        <mxCell id="hn92On2GZQvgxOl0pTMG-70" style="edgeStyle=orthogonalEdgeStyle;rounded=0;orthogonalLoop=1;jettySize=auto;html=1;exitX=0.5;exitY=1;exitDx=0;exitDy=0;entryX=0.5;entryY=0;entryDx=0;entryDy=0;endArrow=none;endFill=0;" edge="1" parent="1" source="hn92On2GZQvgxOl0pTMG-68" target="hn92On2GZQvgxOl0pTMG-62">
          <mxGeometry relative="1" as="geometry" />
        </mxCell>
        <mxCell id="hn92On2GZQvgxOl0pTMG-68" value="step_index := 0" style="shape=hexagon;perimeter=hexagonPerimeter2;whiteSpace=wrap;html=1;fixedSize=1;strokeWidth=2;" vertex="1" parent="1">
          <mxGeometry x="349.5" y="100" width="120" height="70" as="geometry" />
        </mxCell>
        <mxCell id="hn92On2GZQvgxOl0pTMG-76" value="Да" style="text;html=1;align=center;verticalAlign=middle;resizable=0;points=[];autosize=1;strokeColor=none;fillColor=none;" vertex="1" parent="1">
          <mxGeometry x="50" y="1018" width="40" height="30" as="geometry" />
        </mxCell>
        <mxCell id="hn92On2GZQvgxOl0pTMG-77" value="Нет" style="text;html=1;align=center;verticalAlign=middle;resizable=0;points=[];autosize=1;strokeColor=none;fillColor=none;" vertex="1" parent="1">
          <mxGeometry x="140" y="1080" width="40" height="30" as="geometry" />
        </mxCell>
        <mxCell id="hn92On2GZQvgxOl0pTMG-78" value="Да" style="text;html=1;align=center;verticalAlign=middle;resizable=0;points=[];autosize=1;strokeColor=none;fillColor=none;" vertex="1" parent="1">
          <mxGeometry x="340" y="188" width="40" height="30" as="geometry" />
        </mxCell>
        <mxCell id="hn92On2GZQvgxOl0pTMG-79" value="Нет" style="text;html=1;align=center;verticalAlign=middle;resizable=0;points=[];autosize=1;strokeColor=none;fillColor=none;" vertex="1" parent="1">
          <mxGeometry x="400" y="258" width="40" height="30" as="geometry" />
        </mxCell>
        <mxCell id="hn92On2GZQvgxOl0pTMG-80" value="0" style="text;html=1;align=center;verticalAlign=middle;resizable=0;points=[];autosize=1;strokeColor=none;fillColor=none;" vertex="1" parent="1">
          <mxGeometry x="55" y="8" width="30" height="30" as="geometry" />
        </mxCell>
        <mxCell id="hn92On2GZQvgxOl0pTMG-81" value="1" style="text;html=1;align=center;verticalAlign=middle;resizable=0;points=[];autosize=1;strokeColor=none;fillColor=none;" vertex="1" parent="1">
          <mxGeometry x="55" y="88" width="30" height="30" as="geometry" />
        </mxCell>
        <mxCell id="hn92On2GZQvgxOl0pTMG-82" value="2" style="text;html=1;align=center;verticalAlign=middle;resizable=0;points=[];autosize=1;strokeColor=none;fillColor=none;" vertex="1" parent="1">
          <mxGeometry x="55" y="170" width="30" height="30" as="geometry" />
        </mxCell>
        <mxCell id="hn92On2GZQvgxOl0pTMG-83" value="3" style="text;html=1;align=center;verticalAlign=middle;resizable=0;points=[];autosize=1;strokeColor=none;fillColor=none;" vertex="1" parent="1">
          <mxGeometry x="55" y="238" width="30" height="30" as="geometry" />
        </mxCell>
        <mxCell id="hn92On2GZQvgxOl0pTMG-84" value="4" style="text;html=1;align=center;verticalAlign=middle;resizable=0;points=[];autosize=1;strokeColor=none;fillColor=none;" vertex="1" parent="1">
          <mxGeometry x="55" y="328" width="30" height="30" as="geometry" />
        </mxCell>
        <mxCell id="hn92On2GZQvgxOl0pTMG-85" value="5" style="text;html=1;align=center;verticalAlign=middle;resizable=0;points=[];autosize=1;strokeColor=none;fillColor=none;" vertex="1" parent="1">
          <mxGeometry x="55" y="408" width="30" height="30" as="geometry" />
        </mxCell>
        <mxCell id="hn92On2GZQvgxOl0pTMG-87" value="6" style="text;html=1;align=center;verticalAlign=middle;resizable=0;points=[];autosize=1;strokeColor=none;fillColor=none;" vertex="1" parent="1">
          <mxGeometry x="65" y="488" width="30" height="30" as="geometry" />
        </mxCell>
        <mxCell id="hn92On2GZQvgxOl0pTMG-88" value="7" style="text;html=1;align=center;verticalAlign=middle;resizable=0;points=[];autosize=1;strokeColor=none;fillColor=none;" vertex="1" parent="1">
          <mxGeometry x="65" y="578" width="30" height="30" as="geometry" />
        </mxCell>
        <mxCell id="hn92On2GZQvgxOl0pTMG-89" value="8" style="text;html=1;align=center;verticalAlign=middle;resizable=0;points=[];autosize=1;strokeColor=none;fillColor=none;" vertex="1" parent="1">
          <mxGeometry x="65" y="658" width="30" height="30" as="geometry" />
        </mxCell>
        <mxCell id="hn92On2GZQvgxOl0pTMG-90" value="9" style="text;html=1;align=center;verticalAlign=middle;resizable=0;points=[];autosize=1;strokeColor=none;fillColor=none;" vertex="1" parent="1">
          <mxGeometry x="65" y="738" width="30" height="30" as="geometry" />
        </mxCell>
        <mxCell id="hn92On2GZQvgxOl0pTMG-91" value="10" style="text;html=1;align=center;verticalAlign=middle;resizable=0;points=[];autosize=1;strokeColor=none;fillColor=none;" vertex="1" parent="1">
          <mxGeometry x="60" y="828" width="40" height="30" as="geometry" />
        </mxCell>
        <mxCell id="hn92On2GZQvgxOl0pTMG-92" value="11" style="text;html=1;align=center;verticalAlign=middle;resizable=0;points=[];autosize=1;strokeColor=none;fillColor=none;" vertex="1" parent="1">
          <mxGeometry x="55" y="900" width="40" height="30" as="geometry" />
        </mxCell>
        <mxCell id="hn92On2GZQvgxOl0pTMG-93" value="12" style="text;html=1;align=center;verticalAlign=middle;resizable=0;points=[];autosize=1;strokeColor=none;fillColor=none;" vertex="1" parent="1">
          <mxGeometry x="60" y="988" width="40" height="30" as="geometry" />
        </mxCell>
        <mxCell id="hn92On2GZQvgxOl0pTMG-94" value="13" style="text;html=1;align=center;verticalAlign=middle;resizable=0;points=[];autosize=1;strokeColor=none;fillColor=none;" vertex="1" parent="1">
          <mxGeometry x="330" y="78" width="40" height="30" as="geometry" />
        </mxCell>
        <mxCell id="hn92On2GZQvgxOl0pTMG-95" value="14" style="text;html=1;align=center;verticalAlign=middle;resizable=0;points=[];autosize=1;strokeColor=none;fillColor=none;" vertex="1" parent="1">
          <mxGeometry x="340" y="168" width="40" height="30" as="geometry" />
        </mxCell>
        <mxCell id="hn92On2GZQvgxOl0pTMG-96" value="15" style="text;html=1;align=center;verticalAlign=middle;resizable=0;points=[];autosize=1;strokeColor=none;fillColor=none;" vertex="1" parent="1">
          <mxGeometry x="330" y="258" width="40" height="30" as="geometry" />
        </mxCell>
      </root>
    </mxGraphModel>
  </diagram>
</mxfile>
